<?xml version="1.0" encoding="utf-8"?>
<!-- Generator: Adobe Illustrator 24.0.3, SVG Export Plug-In . SVG Version: 6.00 Build 0)  -->
<svg version="1.1" id="Layer_1" xmlns="http://www.w3.org/2000/svg" xmlns:xlink="http://www.w3.org/1999/xlink" x="0px" y="0px"
	 viewBox="0 0 512 512" style="enable-background:new 0 0 512 512;" xml:space="preserve">
<style type="text/css">
	.st0{fill:#981E32;}
</style>
<path class="st0" d="M448,192V77.2c0-8.5-3.4-16.6-9.4-22.6L393.4,9.4c-6-6-14.1-9.4-22.6-9.4H96C78.3,0,64,14.3,64,32v160
	c-35.3,0-64,28.6-64,64v112c0,8.8,7.2,16,16,16h48v96c0,17.7,14.3,32,32,32h320c17.7,0,32-14.3,32-32v-96h48c8.8,0,16-7.2,16-16V256
	C512,220.6,483.4,192,448,192z M384,448H128v-96h256V448z M384,224H128V64h192v48c0,8.8,7.2,16,16,16h48V224z M432,296
	c-13.2,0-24-10.8-24-24c0-13.3,10.8-24,24-24s24,10.7,24,24C456,285.2,445.2,296,432,296z"/>
</svg>
