<?xml version="1.0" encoding="utf-8"?>
<!-- Generator: Adobe Illustrator 24.0.3, SVG Export Plug-In . SVG Version: 6.00 Build 0)  -->
<svg version="1.1" id="Layer_1" xmlns="http://www.w3.org/2000/svg" xmlns:xlink="http://www.w3.org/1999/xlink" x="0px" y="0px"
	 viewBox="0 0 448 512" style="enable-background:new 0 0 448 512;" xml:space="preserve">
<style type="text/css">
	.st0{fill:#981E32;}
</style>
<path class="st0" d="M190.5,66.9l22.2-22.2c9.4-9.4,24.6-9.4,33.9,0L441,239c9.4,9.4,9.4,24.6,0,33.9L246.6,467.3
	c-9.4,9.4-24.6,9.4-33.9,0l-22.2-22.2c-9.5-9.5-9.3-25,0.4-34.3L311.4,296H24c-13.3,0-24-10.7-24-24v-32c0-13.3,10.7-24,24-24h287.4
	L190.9,101.2C181.1,91.9,180.9,76.4,190.5,66.9z"/>
</svg>
