<?xml version="1.0" encoding="utf-8"?>
<!-- Generator: Adobe Illustrator 27.2.0, SVG Export Plug-In . SVG Version: 6.00 Build 0)  -->
<svg version="1.1" id="Layer_1" xmlns="http://www.w3.org/2000/svg" xmlns:xlink="http://www.w3.org/1999/xlink" x="0px" y="0px"
	 viewBox="0 0 448 436.7" style="enable-background:new 0 0 448 436.7;" xml:space="preserve">
<style type="text/css">
	.st0{fill:#FFFFFF;}
</style>
<path class="st0" d="M190.5,29.2L212.7,7c9.4-9.4,24.6-9.4,33.9,0L441,201.3c9.4,9.4,9.4,24.6,0,33.9L246.6,429.6
	c-9.4,9.4-24.6,9.4-33.9,0l-22.2-22.2c-9.5-9.5-9.3-25,0.4-34.3l120.5-114.8H24c-13.3,0-24-10.7-24-24v-32c0-13.3,10.7-24,24-24
	h287.4L190.9,63.5C181.1,54.2,180.9,38.7,190.5,29.2z"/>
</svg>
