<?xml version="1.0" encoding="utf-8"?>
<!-- Generator: Adobe Illustrator 27.2.0, SVG Export Plug-In . SVG Version: 6.00 Build 0)  -->
<svg version="1.1" id="Layer_1" xmlns="http://www.w3.org/2000/svg" xmlns:xlink="http://www.w3.org/1999/xlink" x="0px" y="0px"
	 viewBox="0 0 448 392" style="enable-background:new 0 0 448 392;" xml:space="preserve">
<style type="text/css">
	.st0{fill:#981E32;}
</style>
<path class="st0" d="M16,72h416c8.8,0,16-7.2,16-16V16c0-8.8-7.2-16-16-16H16C7.2,0,0,7.2,0,16v40C0,64.8,7.2,72,16,72z M16,232h416
	c8.8,0,16-7.2,16-16v-40c0-8.8-7.2-16-16-16H16c-8.8,0-16,7.2-16,16v40C0,224.8,7.2,232,16,232z M16,392h416c8.8,0,16-7.2,16-16v-40
	c0-8.8-7.2-16-16-16H16c-8.8,0-16,7.2-16,16v40C0,384.8,7.2,392,16,392z"/>
</svg>
