<?xml version="1.0" encoding="utf-8"?>
<!-- Generator: Adobe Illustrator 24.0.3, SVG Export Plug-In . SVG Version: 6.00 Build 0)  -->
<svg version="1.1" id="Layer_1" xmlns="http://www.w3.org/2000/svg" xmlns:xlink="http://www.w3.org/1999/xlink" x="0px" y="0px"
	 viewBox="0 0 512 512" style="enable-background:new 0 0 512 512;" xml:space="preserve">
<style type="text/css">
	.st0{fill:#FFFFFF;}
</style>
<path class="st0" d="M464,32H48C21.5,32,0,53.5,0,80v352c0,26.5,21.5,48,48,48h416c26.5,0,48-21.5,48-48V80
	C512,53.5,490.5,32,464,32z M380.4,322.5c4.8,4.8,4.8,12.6,0,17.4l-40.5,40.5c-4.8,4.8-12.6,4.8-17.4,0L256,313.3l-66.5,67.1
	c-4.8,4.8-12.6,4.8-17.4,0l-40.5-40.5c-4.8-4.8-4.8-12.6,0-17.4l67.1-66.5l-67.1-66.5c-4.8-4.8-4.8-12.6,0-17.4l40.5-40.5
	c4.8-4.8,12.6-4.8,17.4,0l66.5,67.1l66.5-67.1c4.8-4.8,12.6-4.8,17.4,0l40.5,40.5c4.8,4.8,4.8,12.6,0,17.4L313.3,256L380.4,322.5z"
	/>
</svg>
