<svg width="45" height="46" fill="none" xmlns="http://www.w3.org/2000/svg"><path d="M21.508 7.328V.984a.976.976 0 00-.975-.974H.03v.974h19.11l-3.897 3.912H.029v.974H14.29l-3.904 3.905H.029v.974H9.41l-.772.787a.982.982 0 00-.274.678.88.88 0 00.065.304l.722 2.114H.029v.982H9.41l1.314 3.904H.029v.975h13.67a.974.974 0 01.974.967v2.93H.029v.974h20.504a.975.975 0 00.974-.974v-8.25a.974.974 0 00-.974-.98h-2.952a.967.967 0 01-.952-.975.989.989 0 01.209-.6l4.46-5.622a.923.923 0 00.224-.591M43.953.984V.01H23.456a.975.975 0 00-.967.974v6.352a.924.924 0 00.224.591l4.518 5.695a.902.902 0 01.173.527.967.967 0 01-.953.974h-2.995a.974.974 0 00-.967.982v8.292a.968.968 0 00.967.975h20.497v-.975H29.31V21.51a.974.974 0 01.975-.974h13.67v-1.003H33.25l1.314-3.905h9.382v-.974h-9.05l.721-2.122c.034-.1.053-.205.058-.31a.945.945 0 00-.274-.679l-.78-.786h9.383v-.975H33.625l-3.897-3.904h14.225v-.975H28.725L24.856.984h19.097zM1.111 30.575c0-.664-.288-.981-1.111-1.003v-.44c1.06.072 1.992.144 2.887.144s1.826-.072 2.887-.144v.454c-.816 0-1.104.34-1.104 1.004v4.749h5.773v-4.764c0-.664-.288-.981-1.104-1.003v-.44c1.054.072 1.985.144 2.887.144.902 0 1.819-.072 2.887-.144v.454c-.816 0-1.104.34-1.104 1.004v12.565c0 .671.288.982 1.104 1.003v.455c-1.054-.072-1.992-.145-2.887-.145s-1.826.073-2.887.145v-.455c.816 0 1.104-.332 1.104-1.003v-5.514H4.67v5.514c0 .671.288.982 1.104 1.003v.455c-1.054-.072-1.992-.145-2.887-.145s-1.819.073-2.887.145v-.455c.823 0 1.111-.332 1.111-1.003v-12.58zm16.831 8.661c.477 2.62 2.317 3.84 4.886 3.84 1.444 0 3.457-.412 3.457-2.166 0-1.443-1.494-1.826-2.59-2.165l-1.704-.505c-2.447-.722-4.893-1.747-4.893-4.576 0-3.717 3.608-4.843 7.167-4.843a13.304 13.304 0 014.467.765c0 1.725.087 3.19.188 4.44h-.462c-.498-2.217-2.44-3.242-4.598-3.242-1.198 0-3.211.383-3.211 2.036 0 1.32 1.154 1.703 2.165 1.992l2.512.721c2.424.722 4.676 1.581 4.676 4.692 0 3.11-3.219 4.785-7.123 4.785a15.77 15.77 0 01-5.204-.859c0-1.891-.072-3.55-.188-4.944l.455.029zm15.113-8.48c0-.679-.288-.99-1.104-1.01v-.455h12.002c0 1.313.072 2.583.195 3.882h-.455c-.238-1.313-.57-1.775-1.869-1.775h-5.218v4.143h3.284c1.075 0 1.241-.361 1.386-1.213h.44a20.984 20.984 0 00-.144 2.266c.006.763.054 1.524.144 2.281h-.455c-.144-.859-.31-1.22-1.385-1.22h-3.284v4.72h5.485c1.292 0 1.696-.432 2.107-2.446h.6c-.217 1.97-.26 3.24-.29 4.554H31.937v-.447c.816 0 1.105-.347 1.105-1.01l.014-12.27z" fill="#fff"/></svg>