<svg width="47" height="45" fill="none" xmlns="http://www.w3.org/2000/svg"><g clip-path="url(#clip0)" fill="#fff"><path d="M22.166 7.322V.976A.988.988 0 0021.163 0H.032v.976h19.696l-4.02 3.906H.032v.976h14.675l-4.022 3.906H.032v.971h9.65l-.802.784c0 .004-.002.004-.004.006l-.01.01a.968.968 0 00-.28.678c0 .104.026.208.063.309l-.01.003.733 2.118H.032v.977h9.68l1.356 3.903H.032v.978h15.091v.003h-1.002c.55 0 1 .432 1.002.971v2.926H.032v.976h21.13a.99.99 0 001.004-.976v-8.292a.989.989 0 00-1.003-.976v-.001H17.21v-.009l.911.002c-.545-.01-.984-.44-.984-.974a.96.96 0 01.215-.601l4.597-5.624-.012-.009a.93.93 0 00.229-.595zM45.305.974V0H24.178c-.553 0-1.005.435-1.005.974v6.348c0 .226.094.429.234.596l-.015.008 4.653 5.699a.91.91 0 01.177.526c0 .536-.442.964-.985.974l.912-.002v.006h-3.972v.002c-.552 0-1.004.439-1.004.977v8.296c0 .537.452.973 1.005.973h21.127v-.973h-15.09v-3.695l.002.77c0-.537.45-.975 1.008-.975h-1.01v-.002h15.09v-.978H34.272l1.354-3.903h9.68v-.978h-9.34l.74-2.119-.012-.002c.031-.1.06-.205.06-.311a.934.934 0 00-.281-.674v-.002l-.012-.008c-.002-.004-.005-.004-.006-.009l-.797-.786h9.647v-.97H34.653l-4.015-3.907h14.666V4.88H29.63L25.617.974h19.688zM1.14 30.598c0-.668-.295-.982-1.14-1.006v-.453c1.093.07 2.053.14 2.968.14.91 0 1.881-.072 2.963-.14v.453c-.839.024-1.133.338-1.133 1.006v4.745h5.975v-4.745c0-.668-.297-.982-1.136-1.006v-.453c1.087.07 2.051.14 2.965.14.917 0 1.878-.072 2.967-.14v.453c-.843.024-1.137.338-1.137 1.006v12.56c0 .67.294.984 1.137 1.003v.457c-1.089-.075-2.05-.147-2.967-.147-.914 0-1.878.072-2.965.147v-.457c.839-.019 1.136-.333 1.136-1.003v-5.514H4.798v5.514c0 .67.294.984 1.133 1.003v.457c-1.082-.075-2.052-.147-2.963-.147-.915 0-1.875.072-2.968.147v-.457c.845-.019 1.14-.333 1.14-1.003v-12.56zm17.351 8.604c.49 2.613 2.394 3.834 5.04 3.834 1.455 0 3.556-.408 3.556-2.203 0-1.442-1.532-1.823-2.664-2.158l-1.755-.503c-2.521-.719-5.045-1.75-5.045-4.578 0-3.716 3.706-4.842 7.39-4.842 1.556 0 3.161.266 4.597.768 0 1.727.097 3.187.197 4.434h-.473c-.515-2.21-2.517-3.236-4.744-3.236-1.233 0-3.307.381-3.307 2.035 0 1.321 1.187 1.705 2.2 1.99l2.592.718c2.497.696 4.818 1.586 4.818 4.698 0 3.163-3.287 4.84-7.313 4.84-1.804 0-3.704-.286-5.358-.857 0-1.897-.078-3.55-.198-4.941h.467zm15.592-8.458c0-.672-.295-.982-1.134-1.007v-.457h12.37c.026 1.319.08 2.59.201 3.883h-.466c-.249-1.316-.594-1.774-1.927-1.774h-5.385v4.145h3.384c1.112 0 1.281-.36 1.426-1.218h.474c-.077.6-.15 1.63-.15 2.272 0 .65.073 1.706.15 2.28h-.474c-.145-.861-.315-1.22-1.426-1.22h-3.384v4.72h5.656c1.336 0 1.751-.433 2.174-2.446h.613a42.942 42.942 0 00-.29 4.553H32.95v-.451c.839-.027 1.134-.341 1.134-1.008V30.744z"/></g><defs><clipPath id="clip0"><path fill="#fff" d="M0 0h46.184v45H0z"/></clipPath></defs></svg>