<svg width="45" height="46" viewBox="0 0 45 46" fill="none" xmlns="http://www.w3.org/2000/svg">
<path d="M21.5075 7.32834V0.984334C21.5075 0.856382 21.4823 0.729677 21.4334 0.611465C21.3844 0.493253 21.3126 0.385854 21.2222 0.295378C21.1317 0.204903 21.0243 0.133141 20.9061 0.0841762C20.7879 0.0352113 20.6612 0.00999451 20.5332 0.00999451H0.0288696V0.984334H19.1403L15.2429 4.89612H0.0288696V5.87044H14.2902L10.3857 9.775H0.0288696V10.7493H9.41136L8.6391 11.536C8.46365 11.7184 8.36539 11.9614 8.36484 12.2144C8.36839 12.3185 8.39039 12.4212 8.4298 12.5176V12.5176L9.15153 14.6322H0.0288696V15.6138H9.41136L10.7249 19.5183H0.0288696V20.4927H13.6984C13.9556 20.4927 14.2023 20.5943 14.3848 20.7755C14.5674 20.9567 14.6709 21.2026 14.6728 21.4598V24.39H0.0288696V25.3644H20.5332C20.7916 25.3644 21.0394 25.2617 21.2222 25.079C21.4049 24.8963 21.5075 24.6484 21.5075 24.39V16.1407C21.5085 16.0121 21.484 15.8846 21.4355 15.7656C21.3869 15.6465 21.3153 15.5383 21.2247 15.447C21.1342 15.3558 21.0264 15.2834 20.9077 15.234C20.7891 15.1845 20.6618 15.1591 20.5332 15.1591H17.5813C17.3261 15.1553 17.0827 15.0507 16.9042 14.8682C16.7258 14.6857 16.6267 14.44 16.6287 14.1848C16.6307 13.9675 16.7043 13.757 16.8379 13.5857L21.2982 7.96347C21.4402 7.79868 21.5194 7.5891 21.522 7.37165" fill="white"/>
<path d="M43.9533 0.984334V0.00999451H23.4562C23.1991 0.0118994 22.9531 0.115394 22.7719 0.297911C22.5908 0.480428 22.4891 0.72717 22.4891 0.984334V7.33555C22.4917 7.553 22.5709 7.76258 22.7128 7.92737V7.92737L27.2309 13.6218C27.3425 13.7749 27.4031 13.9592 27.4041 14.1487C27.406 14.4039 27.3069 14.6496 27.1285 14.8321C26.95 15.0147 26.7066 15.1192 26.4514 15.123H23.4562C23.3283 15.124 23.2017 15.1501 23.0839 15.2C22.966 15.2498 22.8592 15.3223 22.7694 15.4135C22.6796 15.5046 22.6086 15.6126 22.5605 15.7312C22.5124 15.8497 22.4882 15.9766 22.4891 16.1046V24.3972C22.4881 24.5249 22.5125 24.6514 22.5606 24.7696C22.6088 24.8877 22.6799 24.9952 22.7698 25.0858C22.8597 25.1763 22.9666 25.2482 23.0844 25.2973C23.2023 25.3463 23.3286 25.3716 23.4562 25.3716H43.9533V24.3972H29.3094V21.5103C29.3094 21.2519 29.4121 21.0041 29.5948 20.8214C29.7775 20.6386 30.0254 20.536 30.2838 20.536H43.9533V19.5328H33.2501L34.5636 15.6282H43.9461V14.6539H34.8956L35.6174 12.532C35.6505 12.4316 35.6699 12.3272 35.6751 12.2217C35.6768 12.096 35.6534 11.9713 35.6063 11.8548C35.5592 11.7384 35.4893 11.6324 35.4008 11.5432L34.6214 10.7566H44.0039V9.78222H33.6254L29.728 5.87766H43.9533V4.90332H28.7248L24.8564 0.984334H43.9533Z" fill="white"/>
<path d="M1.11147 30.5752C1.11147 29.9113 0.822772 29.5937 0 29.572V29.1318C1.06094 29.204 1.99197 29.2761 2.88692 29.2761C3.78186 29.2761 4.71289 29.204 5.77384 29.1318V29.5865C4.95828 29.5865 4.66959 29.9257 4.66959 30.5897V35.3387H10.4434V30.5752C10.4434 29.9113 10.1547 29.5937 9.33918 29.572V29.1318C10.3929 29.204 11.3239 29.2761 12.2261 29.2761C13.1283 29.2761 14.0449 29.204 15.113 29.1318V29.5865C14.2975 29.5865 14.0088 29.9257 14.0088 30.5897V43.155C14.0088 43.8262 14.2975 44.1366 15.113 44.1582V44.6129C14.0593 44.5407 13.121 44.4685 12.2261 44.4685C11.3312 44.4685 10.4001 44.5407 9.33918 44.6129V44.1582C10.1547 44.1582 10.4434 43.8262 10.4434 43.155V37.641H4.66959V43.155C4.66959 43.8262 4.95828 44.1366 5.77384 44.1582V44.6129C4.72011 44.5407 3.78186 44.4685 2.88692 44.4685C1.99197 44.4685 1.06816 44.5407 0 44.6129V44.1582C0.822772 44.1582 1.11147 43.8262 1.11147 43.155V30.5752Z" fill="white"/>
<path d="M17.9422 39.236C18.4185 41.8559 20.259 43.0756 22.8283 43.0756C24.2718 43.0756 26.2854 42.6642 26.2854 40.9104C26.2854 39.467 24.7914 39.0844 23.6944 38.7452L21.9911 38.24C19.5444 37.5183 17.0978 36.4934 17.0978 33.6642C17.0978 29.9473 20.7064 28.8214 24.2646 28.8214C25.7865 28.819 27.2976 29.0778 28.7321 29.5865C28.7321 31.3114 28.8187 32.7765 28.9197 34.0251H28.4578C27.9598 31.8094 26.0184 30.7845 23.8604 30.7845C22.6623 30.7845 20.6487 31.167 20.6487 32.8198C20.6487 34.1406 21.8035 34.5231 22.8139 34.8118L25.3255 35.5335C27.7505 36.2553 30.0023 37.1141 30.0023 40.2248C30.0023 43.3354 26.7834 45.0098 22.8788 45.0098C21.1084 45.0177 19.3492 44.7273 17.6752 44.151C17.6752 42.26 17.603 40.6001 17.4875 39.2071L17.9422 39.236Z" fill="white"/>
<path d="M33.0552 30.7557C33.0552 30.0773 32.7665 29.7669 31.951 29.7453V29.2906H43.9533C43.9533 30.6041 44.0255 31.8744 44.1482 33.1735H43.6935C43.4553 31.8599 43.1233 31.398 41.8242 31.398H36.6061V35.5408H39.89C40.9654 35.5408 41.1314 35.1799 41.2757 34.3283H41.716C41.627 35.0805 41.5788 35.837 41.5716 36.5945C41.5776 37.3568 41.6258 38.1182 41.716 38.8751H41.2613C41.1169 38.0163 40.9509 37.6554 39.8756 37.6554H36.5917V42.3755H42.0768C43.3687 42.3755 43.7729 41.9425 44.1843 39.9289H44.7833C44.5668 41.8992 44.5235 43.1694 44.4946 44.483H31.9365V44.0355C32.7521 44.0355 33.0408 43.6891 33.0408 43.0251L33.0552 30.7557Z" fill="white"/>
</svg>
